<svg width="55" height="50" viewBox="0 0 55 50" fill="none" xmlns="http://www.w3.org/2000/svg">
<g id="&#240;&#159;&#166;&#134; icon &#34;javascript&#34;">
<path id="Vector" d="M46.4503 0.480408H8.45627C3.9598 0.480408 0.314697 3.77108 0.314697 7.83033V42.13C0.314697 46.1892 3.9598 49.4799 8.45627 49.4799H46.4503C50.9467 49.4799 54.5918 46.1892 54.5918 42.13V7.83033C54.5918 3.77108 50.9467 0.480408 46.4503 0.480408Z" fill="#F7DF1E"/>
<path id="Vector_2" d="M34.6619 35.8902C35.722 37.5172 37.2062 38.6656 39.6444 38.6656C41.7646 38.6656 43.1427 37.7086 43.1427 36.3687C43.1427 34.8375 41.7646 34.2633 39.4324 33.3063L38.1603 32.8278C34.4499 31.3922 32.0117 29.6696 32.0117 25.9372C32.0117 22.4919 34.874 19.8123 39.4324 19.8123C42.7187 19.8123 45.0509 20.865 46.6411 23.5446L42.7187 25.8415C41.8706 24.406 40.9165 23.8317 39.4324 23.8317C37.9483 23.8317 36.9942 24.6931 36.9942 25.8415C36.9942 27.1813 37.9483 27.7555 40.1745 28.6169L41.4466 29.0954C45.793 30.818 48.2312 32.4449 48.2312 36.3687C48.2312 40.4839 44.6269 42.7808 39.7504 42.7808C34.98 42.7808 31.9057 40.771 30.4215 38.0914L34.6619 35.8902ZM16.6402 36.273C17.4883 37.5172 18.1244 38.6656 19.9266 38.6656C21.6227 38.6656 22.6828 38.0914 22.6828 35.7945V19.908H27.7713V35.6031C27.7713 40.3882 24.697 42.4937 20.1386 42.4937C16.0042 42.4937 13.672 40.5796 12.5059 38.2828L16.6402 36.273Z" fill="black"/>
</g>
</svg>
