<svg width="68" height="61" viewBox="0 0 68 61" fill="none" xmlns="http://www.w3.org/2000/svg">
<g id="&#240;&#159;&#166;&#134; icon &#34;Git&#34;">
<path id="Vector" d="M65.8235 28.044L36.5535 1.6216C34.8691 0.0996037 32.135 0.0996037 30.4484 1.6216L24.3705 7.10862L32.0806 14.0692C33.8724 13.5226 35.9268 13.8892 37.3553 15.1788C38.7904 16.4763 39.1934 18.3469 38.5734 19.9699L46.0039 26.6781C47.8016 26.119 49.8759 26.4809 51.3117 27.7791C53.3183 29.5899 53.3183 32.525 51.3117 34.3372C49.3044 36.1494 46.0532 36.1494 44.0452 34.3372C42.5358 32.9732 42.1629 30.9718 42.9271 29.2931L35.9974 23.0371L35.9967 39.5002C36.4859 39.7193 36.9478 40.0108 37.3553 40.3774C39.3619 42.1882 39.3619 45.1233 37.3553 46.9368C35.3479 48.7483 32.0953 48.7483 30.0909 46.9368C28.0843 45.1233 28.0843 42.1882 30.0909 40.3774C30.5867 39.9305 31.1604 39.5925 31.7724 39.3654V22.7489C31.1604 22.5231 30.5874 22.1871 30.0909 21.7369C28.5705 20.3663 28.205 18.3523 28.9839 16.6669L21.3842 9.80465L1.31453 27.9218C-0.372097 29.4452 -0.372097 31.9134 1.31453 33.4354L30.5845 59.8585C32.2697 61.3805 35.003 61.3805 36.6903 59.8585L65.8235 33.5583C67.5094 32.0356 67.5094 29.566 65.8235 28.044Z" fill="#DE4C36"/>
</g>
</svg>
