<svg width="89" height="54" viewBox="0 0 89 54" fill="none" xmlns="http://www.w3.org/2000/svg">
<g id="&#240;&#159;&#166;&#134; icon &#34;mysql original wordmark&#34;">
<path id="Vector" d="M0.335676 48.9616H3.27309V35.4205L7.8208 47.2254C8.35708 48.6544 9.09144 49.1594 10.5323 49.1594C11.9731 49.1594 12.6795 48.6544 13.2158 47.2254L17.7635 35.4205V48.9616H20.701V35.443C20.701 34.1242 20.249 33.4857 19.3166 33.1568C17.085 32.3439 15.5876 33.0475 14.9098 34.8062L10.4472 46.4567L6.12613 34.8053C5.47615 33.0475 3.95096 32.3439 1.71929 33.156C0.786871 33.4857 0.334961 34.1234 0.334961 35.4422L0.335676 48.9616ZM23.1443 37.9387H26.081V45.3992C26.0538 45.804 26.1925 46.7555 27.8014 46.7856C28.6222 46.8006 34.1381 46.7856 34.1896 46.7856V37.902H37.1335C37.147 37.902 37.1306 50.0166 37.1306 50.0667C37.1463 53.0549 33.9551 53.7034 32.4835 53.7535H23.2079V51.4464C23.2236 51.4464 32.4771 51.4489 32.5 51.4456C34.3913 51.2127 34.1674 50.116 34.1667 49.747V48.8472H27.9236C25.0191 48.8163 23.1686 47.3365 23.145 45.6337C23.1436 45.4776 23.2086 38.0139 23.1443 37.9387Z" fill="#00618A"/>
<path id="Vector_2" d="M39.3979 48.9615H47.8441C48.833 48.9615 49.794 48.7203 50.5563 48.3029C51.8269 47.6218 52.4483 46.6987 52.4483 45.4884V42.9827C52.4483 41.9936 51.7425 41.0696 50.3582 40.4552C49.6238 40.1247 48.7193 39.9503 47.8434 39.9503H44.2839C43.0976 39.9503 42.5327 39.5329 42.3919 38.6098C42.364 38.4996 42.364 38.4119 42.364 38.3018V36.7409C42.364 36.6533 42.364 36.5648 42.3919 36.4554C42.5327 35.7518 42.8438 35.554 43.8892 35.4438L44.1716 35.4221H52.5613V33.1367H44.3132C43.1269 33.1367 42.5055 33.2244 41.9407 33.4222C40.1895 34.0599 39.4258 35.0707 39.4258 36.8294V38.8293C39.4258 40.3684 40.9239 41.6872 43.4373 41.9952C43.7204 42.0161 44.0021 42.0395 44.2846 42.0395H47.3357C47.4487 42.0395 47.5616 42.0395 47.6467 42.0603C48.5792 42.148 48.9739 42.3466 49.257 42.7414C49.4265 42.9393 49.4823 43.1379 49.4823 43.3566V45.3573C49.4823 45.5986 49.3414 45.9066 49.059 46.1703C48.8051 46.4341 48.3811 46.6102 47.8162 46.6544L47.5052 46.6761H39.3979V48.9615ZM70.775 44.9834C70.775 47.3347 72.2723 48.6535 75.2941 48.9181C75.5765 48.9398 75.8589 48.9615 76.1414 48.9615H83.7967V46.6761H76.0856C74.3624 46.6761 73.7131 46.1703 73.7131 44.9609V33.1351H70.7757L70.775 44.9834ZM54.3231 45.1019V36.9512C54.3231 34.8812 55.5688 33.625 58.0314 33.2286C58.2859 33.1843 58.5698 33.1626 58.8236 33.1626H64.4003C64.6835 33.1626 64.938 33.1843 65.2205 33.2286C67.6831 33.625 68.9294 34.8804 68.9294 36.9512V45.1019C68.9294 46.783 68.4003 47.6811 67.1811 48.2671L70.0756 51.3162H66.6641L64.3231 48.8488L61.9663 49.0233H58.8236C58.2859 49.0233 57.7203 48.9356 57.0975 48.737C55.2291 48.1427 54.3231 46.9967 54.3231 45.1019ZM57.4937 44.9041C57.4937 45.0143 57.5215 45.1253 57.5501 45.2572C57.7196 46.2045 58.4847 46.7329 59.6445 46.7329H62.3131L59.8619 44.1496H63.2734L65.4107 46.4032C65.8054 46.157 66.0642 45.783 66.155 45.3014C66.1829 45.1912 66.1829 45.0811 66.1829 44.9709V37.1516C66.1829 37.0639 66.1829 36.9529 66.155 36.8427C65.9849 35.9613 65.2205 35.4555 64.0885 35.4555H59.6438C58.3424 35.4555 57.4929 36.1166 57.4929 37.1516L57.4937 44.9041Z" fill="#E48E00"/>
<path id="Vector_3" d="M86.3808 29.3415C84.5753 29.2839 83.196 29.48 82.0162 30.0601C81.6808 30.2254 81.1467 30.2296 81.0923 30.7195C81.2761 30.9457 81.3047 31.2821 81.4513 31.5592C81.733 32.0909 82.2085 32.8037 82.6325 33.1768C83.0952 33.585 83.5728 34.0224 84.0705 34.3763C84.9536 35.0056 85.9404 35.3645 86.792 35.9939C87.2932 36.3662 87.7909 36.8336 88.2807 37.2534C88.5231 37.4596 88.6847 37.7826 89 37.912V37.8527C88.8349 37.6073 88.792 37.2701 88.6404 37.013L87.9725 36.2334C87.3197 35.2218 86.4917 34.3345 85.61 33.5967C84.9078 33.0082 83.3362 32.2128 83.043 31.2587L82.9915 31.1995C83.4892 31.1335 84.0727 30.9232 84.5317 30.7796C85.304 30.5376 85.994 30.6002 86.7913 30.3598L87.8696 29.9992V29.7605C87.467 29.278 87.1788 28.6387 86.7398 28.2021C85.5907 27.0594 84.3351 25.9176 83.043 24.9644C82.3265 24.4369 81.4406 24.0938 80.6805 23.6464C80.4259 23.4953 79.9769 23.4177 79.8074 23.1665C79.4077 22.573 79.191 21.821 78.8828 21.129C78.2393 19.6808 77.6058 18.0983 77.0344 16.5733C76.6454 15.5341 76.3909 14.5091 75.9054 13.5768C73.5736 9.10204 71.0638 6.401 67.1761 3.74671C66.3488 3.18163 65.3527 2.9596 64.3009 2.6683L62.6062 2.54811C62.2623 2.38033 61.9033 1.88787 61.5794 1.64915C60.2909 0.699282 56.9874 -1.36656 56.0335 1.35033C55.4314 3.06477 56.9344 4.73748 57.4714 5.60639C57.8483 6.2157 58.3316 6.89848 58.6012 7.58375C58.7785 8.03448 58.8086 8.48604 58.9609 8.96265C59.3334 10.1362 59.6588 11.4141 60.1414 12.4984C60.3853 13.0476 60.6548 13.626 60.963 14.1168C61.1518 14.4173 61.4764 14.5509 61.5272 15.0158C61.2104 15.5333 61.1918 16.3379 61.0138 16.9931C60.2115 19.9471 60.514 23.6189 61.6816 25.8049C62.0399 26.4768 62.8836 27.9158 64.0434 27.3633C65.0581 26.8808 64.8321 25.3859 65.1225 24.0663C65.1882 23.7683 65.1475 23.5479 65.2762 23.3476V23.4077L66.2007 25.5653C66.885 26.8516 68.0985 28.1946 69.1274 29.1019C69.6609 29.5718 70.0813 30.3856 70.7706 30.6603V30.5993H70.7198C70.5854 30.3564 70.3773 30.2563 70.2057 30.0601C69.8039 29.6002 69.357 29.0293 69.0252 28.5018C68.0892 27.0194 67.2626 25.3959 66.5089 23.7065C66.1493 22.9002 65.8368 22.0104 65.5336 21.1891C65.4163 20.8728 65.4178 20.3936 65.1747 20.2309C64.8414 20.8319 64.3531 21.3185 64.0956 22.0288C63.6852 23.164 63.6323 24.5487 63.48 25.9844L63.377 26.0436C62.6613 25.8425 62.4103 24.9827 62.1443 24.2457C61.4721 22.3819 61.347 19.3795 61.9391 17.2335C62.0921 16.6776 62.7835 14.929 62.5032 14.4156C62.3695 13.904 61.9283 13.6085 61.6824 13.2162C61.377 12.7329 61.0717 12.0969 60.8608 11.5377C60.3102 10.0845 60.0535 8.45266 59.475 6.98278C59.1976 6.27998 58.7299 5.56966 58.3452 4.94532C57.9198 4.25253 57.4428 3.74337 57.1125 2.90702C56.9952 2.60987 56.8358 2.13327 57.0095 1.82777C57.0646 1.6216 57.144 1.53563 57.3184 1.46802C57.6159 1.20009 58.4453 1.55734 58.7557 1.70758C59.5794 2.10739 60.2666 2.48717 60.9645 3.02638C61.2991 3.28597 61.6373 3.78678 62.0427 3.92533H62.5047C63.2276 4.11898 64.0377 3.9846 64.7127 4.22415C65.9069 4.64817 66.9766 5.30674 67.9476 6.02289C70.9072 8.20476 73.3262 11.3098 74.9822 15.0141C75.2482 15.6109 75.3641 16.1793 75.5979 16.812C76.0713 18.0874 76.6676 19.4004 77.1381 20.6482C77.6079 21.8927 78.0662 23.1489 78.7305 24.1848C79.0795 24.729 80.428 25.0211 81.0408 25.3233C81.4706 25.5353 82.1742 25.7565 82.5811 26.042C83.3583 26.5895 84.112 27.2414 84.8406 27.8407C85.2046 28.1428 86.3251 28.7997 86.3808 29.3415ZM63.4285 6.50534C63.0524 6.49699 62.7857 6.55375 62.5039 6.62554V6.6848H62.5554C62.7349 7.11633 63.0517 7.39345 63.2741 7.76405L63.7882 9.02275L63.8389 8.96348C64.1571 8.70223 64.3023 8.28405 64.3009 7.64468C64.1729 7.48776 64.1543 7.29161 64.0442 7.10548C63.8983 6.85507 63.6137 6.71485 63.4285 6.50534Z" fill="#00618A"/>
</g>
</svg>
