<svg width="55" height="56" viewBox="0 0 55 56" fill="none" xmlns="http://www.w3.org/2000/svg">
<g id="&#240;&#159;&#166;&#134; icon &#34;html5&#34;">
<path id="Vector" d="M5.53473 49.9215L0.637451 0.31897H54.5076L49.6103 49.9215L27.5128 55.5288" fill="#E34F26"/>
<path id="Vector_2" d="M27.6326 51.2155L45.43 46.7944L49.6106 4.30872H27.6326" fill="#EF652A"/>
<path id="Vector_3" d="M27.632 22.7479H18.6735L18.0763 16.4937H27.632V10.4551H10.6707L12.4623 28.8943H27.632V22.7479ZM27.5125 38.5992L19.9874 36.7661L19.5097 31.9136H12.8207L13.6568 41.5106L27.5125 44.9613V38.5992Z" fill="#EBEBEB"/>
<path id="Vector_4" d="M27.5125 22.7479V28.8943H35.8737L35.0375 36.7661L27.5125 38.5992V44.9613L41.3682 41.5106L43.2793 22.7479H27.5125ZM27.5125 10.4551V16.4937H43.8765L44.4738 10.4551H27.5125Z" fill="white"/>
</g>
</svg>
