<svg width="55" height="56" viewBox="0 0 55 56" fill="none" xmlns="http://www.w3.org/2000/svg">
<g id="&#240;&#159;&#166;&#134; icon &#34;file type css&#34;">
<path id="Vector" d="M5.46116 49.9616L0.560303 0.31897H54.4304L49.523 49.9537L27.4626 55.4752L5.46116 49.9616Z" fill="#1572B6"/>
<path id="Vector_2" d="M27.4951 51.2556L45.3224 46.7939L49.5162 4.37872H27.4951V51.2556Z" fill="#33A9DC"/>
<path id="Vector_3" d="M27.4951 22.3636H36.4196L37.035 16.129H27.4951V10.0402H27.5191H44.4059L44.2444 11.6732L42.5883 28.4525H27.4951V22.3636Z" fill="white"/>
<path id="Vector_4" d="M27.5366 38.1759L27.5061 38.1837L19.9955 36.3518L19.5155 31.496H15.8649H12.7446L13.6895 41.0558L27.5039 44.5188L27.5366 44.5109V38.1759Z" fill="#EBEBEB"/>
<path id="Vector_5" d="M35.8461 28.1945L35.0344 36.3477L27.5129 38.1797V44.5148L41.3383 41.0557L41.4409 40.0274L42.6126 28.1945H35.8461Z" fill="white"/>
<g id="Group">
<path id="Vector_6" d="M27.5193 10.0402V13.8223V16.1133V16.129H11.25H11.2282L11.0929 14.76L10.7853 11.6732L10.6238 10.0402H27.5193Z" fill="#EBEBEB"/>
<path id="Vector_7" d="M27.4951 22.3637V26.1459V28.4368V28.4526H20.1001H20.0783L19.943 27.0835L19.6375 23.9967L19.4761 22.3637H27.4951Z" fill="#EBEBEB"/>
</g>
</g>
</svg>
